# xmcd CD database file generated by Grip 3.2.0
# 
# Track frame offsets:
#       182
#       17252
#       33142
#       50772
#       64202
#       77952
#       92020
#       101932
#       115997
#       125272
#       143202
#       153992
#       166760
# 
# Disc length: 2492 seconds
# 
# Revision: 4
# Processed by: cddbd v1.5.2PL0 Copyright (c) Steve Scherf et al.
# Submitted via: Grip 3.2.0
# 
DISCID=a409ba0d
DTITLE=Howlin' Wolf - The London Howlin' Wolf Sessions
DYEAR=1989
DGENRE=Blues
TTITLE0=Rockin' Daddy
TTITLE1=I Ain't Superstitious
TTITLE2=Sittin' on Top of the World
TTITLE3=Worried About My Baby
TTITLE4=What a Woman!
TTITLE5=Poor Boy
TTITLE6=Built for Comfort
TTITLE7=Who's Been Talking?
TTITLE8=The Red Rooster (false start)
TTITLE9=The Red Rooster
TTITLE10=Do the Do
TTITLE11=Highway 49
TTITLE12=Wang Dang Doodle
EXTD=
EXTT0=
EXTT1=
EXTT2=
EXTT3=
EXTT4=
EXTT5=
EXTT6=
EXTT7=
EXTT8=
EXTT9=
EXTT10=
EXTT11=
EXTT12=
PLAYORDER=
